{"title":"Game.of.Thrones.S05E01-E04.HDTV.x264-Xclusive","uid":11812005,"size":1408430193,"categoryP":"video","categoryS":"hd___tv_shows","magnet":"?xt=urn:btih:c979e317d3b6e40d8d03f56c71640c254a53ef6f&amp;dn=Game.of.Thrones.S05E01-E04.HDTV.x264-Xclusive&amp;tr=udp%3A%2F%2Ftracker.openbittorrent.com%3A80&amp;tr=udp%3A%2F%2Fopen.demonii.com%3A1337&amp;tr=udp%3A%2F%2Ftracker.coppersurfer.tk%3A6969&amp;tr=udp%3A%2F%2Fexodus.desync.com%3A6969","seeders":28,"leechers":1,"uploader":null,"files":8,"time":1428864160,"description":"S5, Ep1\n12 Apr. 2015 The Wars to Come\nCersei and Jaime adjust to a world without Tywin. Varys reveals a conspiracy to Tyrion. Daenerys faces a new threat to her rule. Jon is caught between two kings.\n\nGeneral\nComplete name : Game.of.Thrones.S05E01.HDTV.x264-Xclusive.mp4\nFormat : MPEG-4\nFormat profile : Base Media\nCodec ID : isom\nFile size : 298 MiB\nDuration : 52mn 12s\nOverall bit rate : 798 Kbps\nWriting application : Lavf53.31.100\nEncoded by : Xclusive for iPT\n\nVideo\nID : 1\nFormat : AVC\nFormat/Info : Advanced Video Codec\nFormat profile : &lt;a class=&quot;__cf_email__&quot; href=&quot;/cdn-cgi/l/email-protection&quot; data-cfemail=&quot;1d55747a755d512e332c&quot;&gt;[email&amp;#160;protected]&lt;/a&gt;&lt;script cf-hash='f9e31' type=&quot;text/javascript&quot;&gt;\n/* &lt;![CDATA[ */!function(){try{var t=&quot;currentScript&quot;in document?document.currentScript:function(){for(var t=document.getElementsByTagName(&quot;script&quot;),e=t.length;e--;)if(t[e].getAttribute(&quot;cf-hash&quot;))return t[e]}();if(t&amp;&amp;t.previousSibling){var e,r,n,i,c=t.previousSibling,a=c.getAttribute(&quot;data-cfemail&quot;);if(a){for(e=&quot;&quot;,r=parseInt(a.substr(0,2),16),n=2;a.length-n;n+=2)i=parseInt(a.substr(n,2),16)^r,e+=String.fromCharCode(i);e=document.createTextNode(e),c.parentNode.replaceChild(e,c)}}}catch(u){}}();/* ]]&gt; */&lt;/script&gt;\nFormat settings, CABAC : Yes\nFormat settings, ReFrames : 5 frames\nCodec ID : avc1\nCodec ID/Info : Advanced Video Coding\nDuration : 52mn 12s\nBit rate : 645 Kbps\nWidth : 720 pixels\nHeight : 392 pixels\nDisplay aspect ratio : 1.85:1\nFrame rate mode : Variable\nFrame rate : 23.976 fps\nMinimum frame rate : 23.952 fps\nMaximum frame rate : 24.000 fps\nColor space : YUV\nChroma subsampling : 4:2:0\nBit depth : 8 bits\nScan type : Progressive\nBits/(Pixel*Frame) : 0.095\nStream size : 241 MiB (81%)\n\nAudio\nID : 2\nFormat : AAC\nFormat/Info : Advanced Audio Codec\nFormat profile : LC\nCodec ID : 40\nDuration : 52mn 12s\nDuration_LastFrame : -21ms\nBit rate mode : Constant\nBit rate : 147 Kbps\nChannel(s) : 2 channels\nChannel positions : Front: L R\nSampling rate : 48.0 KHz\nCompression mode : Lossy\nStream size : 54.9 MiB (18%)\n\n\nS5, Ep2\nThe House of Black and White\nArya arrives in Braavos. Pod and Brienne run into trouble on the road. Cersei fears for her daughter's safety in Dorne as Ellaria Sand seeks revenge for Oberyn's death. Stannis tempts Jon. An adviser tempts Daenerys.\n\nGeneral\nComplete name : Game.of.Thrones.S05E02.HDTV.x264-Xclusive.mp4\nFormat : MPEG-4\nFormat profile : Base Media\nCodec ID : isom\nFile size : 371 MiB\nDuration : 55mn 38s\nOverall bit rate : 932 Kbps\nWriting application : Lavf53.31.100\n\nVideo\nID : 1\nFormat : AVC\nFormat/Info : Advanced Video Codec\nFormat profile : &lt;a class=&quot;__cf_email__&quot; href=&quot;/cdn-cgi/l/email-protection&quot; data-cfemail=&quot;c48cada3ac8488f7eaf5&quot;&gt;[email&amp;#160;protected]&lt;/a&gt;&lt;script cf-hash='f9e31' type=&quot;text/javascript&quot;&gt;\n/* &lt;![CDATA[ */!function(){try{var t=&quot;currentScript&quot;in document?document.currentScript:function(){for(var t=document.getElementsByTagName(&quot;script&quot;),e=t.length;e--;)if(t[e].getAttribute(&quot;cf-hash&quot;))return t[e]}();if(t&amp;&amp;t.previousSibling){var e,r,n,i,c=t.previousSibling,a=c.getAttribute(&quot;data-cfemail&quot;);if(a){for(e=&quot;&quot;,r=parseInt(a.substr(0,2),16),n=2;a.length-n;n+=2)i=parseInt(a.substr(n,2),16)^r,e+=String.fromCharCode(i);e=document.createTextNode(e),c.parentNode.replaceChild(e,c)}}}catch(u){}}();/* ]]&gt; */&lt;/script&gt;\nFormat settings, CABAC : Yes\nFormat settings, ReFrames : 5 frames\nFormat settings, GOP : M=2, N=15\nCodec ID : avc1\nCodec ID/Info : Advanced Video Coding\nDuration : 55mn 38s\nBit rate : 779 Kbps\nWidth : 720 pixels\nHeight : 392 pixels\nDisplay aspect ratio : 1.85:1\nFrame rate mode : Variable\nFrame rate : 23.976 fps\nMinimum frame rate : 23.952 fps\nMaximum frame rate : 24.000 fps\nColor space : YUV\nChroma subsampling : 4:2:0\nBit depth : 8 bits\nScan type : Progressive\nBits/(Pixel*Frame) : 0.115\nStream size : 310 MiB (84%)\n\nAudio\nID : 2\nFormat : AAC\nFormat/Info : Advanced Audio Codec\nFormat profile : LC\nCodec ID : 40\nDuration : 55mn 38s\nDuration_LastFrame : -21ms\nBit rate mode : Constant\nBit rate : 147 Kbps\nChannel(s) : 2 channels\nChannel positions : Front: L R\nSampling rate : 48.0 KHz\nCompression mode : Lossy\nStream size : 58.5 MiB (16%)\n\nS5, Ep3\nHigh Sparrow\nIn Braavos, Arya sees the Many-Faced God. In Kings Landing, Queen Margaery enjoys her new husband. Tyrion and Varys walk the Long Bridge of Volantis.\n\nGeneral\nComplete name : Game.of.Thrones.S05E03.HDTV.x264-Xclusive.mp4\nFormat : MPEG-4\nFormat profile : Base Media\nCodec ID : isom\nFile size : 333 MiB\nDuration : 59mn 53s\nOverall bit rate : 776 Kbps\nWriting application : Lavf53.31.100\nEncoded by : Xclusive-4-iPT\n\nVideo\nID : 1\nFormat : AVC\nFormat/Info : Advanced Video Codec\nFormat profile : &lt;a class=&quot;__cf_email__&quot; href=&quot;/cdn-cgi/l/email-protection&quot; data-cfemail=&quot;df97b6b8b79f93ecf1ee&quot;&gt;[email&amp;#160;protected]&lt;/a&gt;&lt;script cf-hash='f9e31' type=&quot;text/javascript&quot;&gt;\n/* &lt;![CDATA[ */!function(){try{var t=&quot;currentScript&quot;in document?document.currentScript:function(){for(var t=document.getElementsByTagName(&quot;script&quot;),e=t.length;e--;)if(t[e].getAttribute(&quot;cf-hash&quot;))return t[e]}();if(t&amp;&amp;t.previousSibling){var e,r,n,i,c=t.previousSibling,a=c.getAttribute(&quot;data-cfemail&quot;);if(a){for(e=&quot;&quot;,r=parseInt(a.substr(0,2),16),n=2;a.length-n;n+=2)i=parseInt(a.substr(n,2),16)^r,e+=String.fromCharCode(i);e=document.createTextNode(e),c.parentNode.replaceChild(e,c)}}}catch(u){}}();/* ]]&gt; */&lt;/script&gt;\nFormat settings, CABAC : Yes\nFormat settings, ReFrames : 5 frames\nCodec ID : avc1\nCodec ID/Info : Advanced Video Coding\nDuration : 59mn 53s\nBit rate : 623 Kbps\nWidth : 720 pixels\nHeight : 392 pixels\nDisplay aspect ratio : 1.85:1\nFrame rate mode : Variable\nFrame rate : 23.976 fps\nMinimum frame rate : 23.952 fps\nMaximum frame rate : 24.000 fps\nColor space : YUV\nChroma subsampling : 4:2:0\nBit depth : 8 bits\nScan type : Progressive\nBits/(Pixel*Frame) : 0.092\nStream size : 267 MiB (80%)\n\nAudio\nID : 2\nFormat : AAC\nFormat/Info : Advanced Audio Codec\nFormat profile : LC\nCodec ID : 40\nDuration : 59mn 53s\nDuration_LastFrame : -21ms\nBit rate mode : Constant\nBit rate : 147 Kbps\nChannel(s) : 2 channels\nChannel positions : Front: L R\nSampling rate : 48.0 KHz\nCompression mode : Lossy\nStream size : 63.0 MiB (19%)\n\nS5, Ep4\nThe Sons of the Harpy\nOh noes, we can't tell you about it because no one knows....weeeeeeeeeeeee!\n\nGeneral\nComplete name : Game.of.Thrones.S05E04.HDTV.x264-Xclusive.mp4\nFormat : MPEG-4\nFormat profile : Base Media\nCodec ID : isom\nFile size : 342 MiB\nDuration : 50mn 22s\nOverall bit rate : 949 Kbps\nWriting application : Lavf53.31.100\nEncoded by : Xclusive-4-iPT\n\nVideo\nID : 1\nFormat : AVC\nFormat/Info : Advanced Video Codec\nFormat profile : &lt;a class=&quot;__cf_email__&quot; href=&quot;/cdn-cgi/l/email-protection&quot; data-cfemail=&quot;c28aaba5aa828ef1ecf3&quot;&gt;[email&amp;#160;protected]&lt;/a&gt;&lt;script cf-hash='f9e31' type=&quot;text/javascript&quot;&gt;\n/* &lt;![CDATA[ */!function(){try{var t=&quot;currentScript&quot;in document?document.currentScript:function(){for(var t=document.getElementsByTagName(&quot;script&quot;),e=t.length;e--;)if(t[e].getAttribute(&quot;cf-hash&quot;))return t[e]}();if(t&amp;&amp;t.previousSibling){var e,r,n,i,c=t.previousSibling,a=c.getAttribute(&quot;data-cfemail&quot;);if(a){for(e=&quot;&quot;,r=parseInt(a.substr(0,2),16),n=2;a.length-n;n+=2)i=parseInt(a.substr(n,2),16)^r,e+=String.fromCharCode(i);e=document.createTextNode(e),c.parentNode.replaceChild(e,c)}}}catch(u){}}();/* ]]&gt; */&lt;/script&gt;\nFormat settings, CABAC : Yes\nFormat settings, ReFrames : 5 frames\nCodec ID : avc1\nCodec ID/Info : Advanced Video Coding\nDuration : 50mn 22s\nBit rate : 796 Kbps\nWidth : 720 pixels\nHeight : 392 pixels\nDisplay aspect ratio : 1.85:1\nFrame rate mode : Variable\nFrame rate : 23.976 fps\nMinimum frame rate : 23.952 fps\nMaximum frame rate : 24.000 fps\nColor space : YUV\nChroma subsampling : 4:2:0\nBit depth : 8 bits\nScan type : Progressive\nBits/(Pixel*Frame) : 0.118\nStream size : 287 MiB (84%)\n\nAudio\nID : 2\nFormat : AAC\nFormat/Info : Advanced Audio Codec\nFormat profile : LC\nCodec ID : 40\nDuration : 50mn 22s\nDuration_LastFrame : -21ms\nBit rate mode : Constant\nBit rate : 147 Kbps\nChannel(s) : 2 channels\nChannel positions : Front: L R\nSampling rate : 48.0 KHz\nCompression mode : Lossy\nStream size : 53.1 MiB (16%)","torrent":{"xt":"urn:btih:c979e317d3b6e40d8d03f56c71640c254a53ef6f","amp;dn":"Game.of.Thrones.S05E01-E04.HDTV.x264-Xclusive","amp;tr":["udp%3A%2F%2Ftracker.openbittorrent.com%3A80","udp%3A%2F%2Fopen.demonii.com%3A1337","udp%3A%2F%2Ftracker.coppersurfer.tk%3A6969","udp%3A%2F%2Fexodus.desync.com%3A6969"],"infoHash":"c979e317d3b6e40d8d03f56c71640c254a53ef6f","infoHashBuffer":{"type":"Buffer","data":[201,121,227,23,211,182,228,13,141,3,245,108,113,100,12,37,74,83,239,111]},"announce":[],"urlList":[]}}